<?xml version="1.0" encoding="UTF-8" standalone="no"?>
<!-- Created with enve https://maurycyliebner.github.io -->

<svg xmlns:xlink="http://www.w3.org/1999/xlink" xmlns="http://www.w3.org/2000/svg" viewBox="0 0 1920 1080">
 <rect height="1080" width="1920" fill="#ffffff"/>
 <g transform="translate(608.045 357.326)">
  <g>
   <animateTransform dur="8.33333s" keyTimes="0;0;0.03;0.885;0.95;0.955;0.96;0.965;0.97;1" keySplines="0 0 1 1;0 0 1 1;0 0 1 1;0 0 1 1;0 0 1 1;0 0 1 1;0 0 1 1;0 0 1 1;0 0 1 1" calcMode="spline" repeatCount="indefinite" type="translate" values="-475.128 0;-475.128 0;-224.977 0;208.145 0;314.215 0;318.635 0;312.006 0;316.425 0;323.055 0;323.055 0" attributeName="transform"/>
   <g>
    <animateTransform dur="8.33333s" keyTimes="0;0;0.03;0.885;0.95;0.955;0.96;0.965;0.97;1" keySplines="0 0 1 1;0 0 1 1;0 0 1 1;0 0 1 1;0 0 1 1;0 0.333333 1 0.666667;0 0 1 1;0 0.333333 1 0.666667;0 0 1 1" calcMode="spline" repeatCount="indefinite" type="translate" values="0 236.193;0 236.193;0 86.8785;0 -94.3257;0 -127.473;0 -136.312;0 -136.312;0 -158.41;0 -158.41;0 -158.41" attributeName="transform"/>
    <g>
     <animateTransform dur="8.33333s" keyTimes="0;0;1" keySplines="0 0 1 1;0 0 1 1" calcMode="spline" repeatCount="indefinite" type="rotate" values="0;0;2000" attributeName="transform"/>
     <g transform="scale(0.264583 0.264583)">
      <g transform="skewX(0) skewY(0)">
       <g opacity="1" transform="translate(-608.045 -357.326)">
        <path d="M677.631 531.395C677.631 531.395 672.3 493.164 672.3 493.164C672.3 493.164 624.463 546.354 624.463 546.354C624.463 546.354 630.638 508.251 630.638 508.251C630.638 508.251 569.248 544.977 569.248 544.977C569.248 544.977 586.38 510.387 586.38 510.387C586.38 510.387 516.892 527.386 516.892 527.386C516.892 527.386 543.458 499.382 543.458 499.382C543.458 499.382 472.047 495.145 472.047 495.145C472.047 495.145 505.687 476.216 505.687 476.216C505.687 476.216 438.698 451.118 438.698 451.118C438.698 451.118 476.423 442.945 476.423 442.945C476.423 442.945 419.807 399.217 419.807 399.217C419.807 399.217 458.265 402.526 458.265 402.526C458.265 402.526 417.054 344.053 417.054 344.053C417.054 344.053 452.828 358.552 452.828 358.552C452.828 358.552 430.683 290.529 430.683 290.529C430.683 290.529 460.594 314.928 460.594 314.928C460.594 314.928 459.483 243.4 459.483 243.4C459.483 243.4 480.873 275.531 480.873 275.531C480.873 275.531 500.895 206.853 500.895 206.853C500.895 206.853 511.864 243.862 511.864 243.862C511.864 243.862 551.239 184.137 551.239 184.137C551.239 184.137 550.813 222.735 550.813 222.735C550.813 222.735 606.042 177.269 606.042 177.269C606.042 177.269 594.258 214.027 594.258 214.027C594.258 214.027 660.435 186.86 660.435 186.86C660.435 186.86 638.34 218.511 638.34 218.511C638.34 218.511 709.585 212.057 709.585 212.057C709.585 212.057 679.142 235.789 679.142 235.789C679.142 235.789 749.124 250.623 749.124 250.623C749.124 250.623 713.038 264.327 713.038 264.327C713.038 264.327 775.539 299.129 775.539 299.129C775.539 299.129 737.017 301.588 737.017 301.588C737.017 301.588 786.483 353.266 786.483 353.266C786.483 353.266 748.948 344.261 748.948 344.261C748.948 344.261 780.984 408.223 780.984 408.223C780.984 408.223 747.771 388.555 747.771 388.555C747.771 388.555 759.53 459.118 759.53 459.118C759.53 459.118 733.589 430.534 733.589 430.534C733.589 430.534 724.028 501.429 724.028 501.429C724.028 501.429 707.665 466.468 707.665 466.468C707.665 466.468 677.631 531.395 677.631 531.395Z" fill="#e50304" stroke-width="2.38125" stroke="#ff31ff"/>
       </g>
      </g>
     </g>
    </g>
   </g>
  </g>
 </g>
 <g transform="translate(-137.544 66.0517)">
  <g>
   <animateTransform dur="8.33333s" keyTimes="0;0;0.03;0.885;0.95;0.955;0.96;0.965;0.97;1" keySplines="0 0 1 1;0 0 1 1;0 0 1 1;0 0 1 1;0 0 1 1;0 0 1 1;0 0 1 1;0 0 1 1;0 0 1 1" calcMode="spline" repeatCount="indefinite" type="translate" values="1910.49 0;1910.49 0;1609.95 0;1254.18 0;1170.2 0;1163.57 0;1165.78 0;1159.15 0;1170.2 0;1170.2 0" attributeName="transform"/>
   <g>
    <animateTransform dur="8.33333s" keyTimes="0;0;0.03;0.885;0.95;0.955;0.96;0.965;0.97;1" keySplines="0 0 1 1;0 0 1 1;0 0 1 1;0 0 1 1;0 0.333333 1 0.666667;0 0.333333 1 0.666667;0 0 1 1;0 0.333333 1 0.666667;0 0 1 1" calcMode="spline" repeatCount="indefinite" type="translate" values="0 615.566;0 615.566;0 418.893;0 213.381;0 160.346;0 160.346;0 160.346;0 162.556;0 162.556;0 162.556" attributeName="transform"/>
    <g>
     <animateTransform dur="8.33333s" keyTimes="0;0;1" keySplines="0 0 1 1;0 0 1 1" calcMode="spline" repeatCount="indefinite" type="rotate" values="-174.885;-174.885;2000" attributeName="transform"/>
     <g>
      <animateTransform dur="8.33333s" keyTimes="0;0.98;0.99;1" keySplines="0 0 1 1;0 0 1 1;0 0 1 1" calcMode="spline" repeatCount="indefinite" type="scale" values="1 1;1 1;0 1;0 1" attributeName="transform"/>
      <g>
       <animateTransform dur="8.33333s" keyTimes="0;0.98;0.99;1" keySplines="0 0 1 1;0 0 1 1;0 0 1 1" calcMode="spline" repeatCount="indefinite" type="scale" values="1 1;1 1;1 0;1 0" attributeName="transform"/>
       <g transform="skewX(0) skewY(0)">
        <g opacity="1" transform="translate(137.544 -66.0517)">
         <g>
          <g transform="translate(-463.853 316.905)">
           <g transform="translate(326.659 -246.943)">
            <g transform="rotate(0)">
             <g transform="scale(0.20679 0.20679)">
              <g transform="skewX(0) skewY(0)">
               <g opacity="1" transform="translate(463.853 -316.905)">
                <path d="M-352.203 545.812C-352.203 545.812 -565.548 552.178 -565.548 552.178C-565.548 552.178 -703.544 389.347 -703.544 389.347C-703.544 389.347 -662.276 179.935 -662.276 179.935C-662.276 179.935 -472.821 81.6323 -472.821 81.6323C-472.821 81.6323 -277.842 168.464 -277.842 168.464C-277.842 168.464 -224.162 375.044 -224.162 375.044C-224.162 375.044 -352.203 545.812 -352.203 545.812Z" fill="#33afd5" stroke-width="1.86111" stroke="#ff31ff"/>
               </g>
              </g>
             </g>
            </g>
           </g>
          </g>
          <g transform="translate(-463.853 316.905)">
           <g transform="translate(326.659 -246.943)">
            <g transform="rotate(28.2134)">
             <g transform="scale(0.20679 0.20679)">
              <g transform="skewX(0) skewY(0)">
               <g opacity="1" transform="translate(463.853 -316.905)">
                <path d="M-352.203 545.812C-352.203 545.812 -565.548 552.178 -565.548 552.178C-565.548 552.178 -703.544 389.347 -703.544 389.347C-703.544 389.347 -662.276 179.935 -662.276 179.935C-662.276 179.935 -472.821 81.6323 -472.821 81.6323C-472.821 81.6323 -277.842 168.464 -277.842 168.464C-277.842 168.464 -224.162 375.044 -224.162 375.044C-224.162 375.044 -352.203 545.812 -352.203 545.812Z" fill="#33afd5" stroke-width="1.86111" stroke="#ff31ff"/>
               </g>
              </g>
             </g>
            </g>
           </g>
          </g>
         </g>
        </g>
       </g>
      </g>
     </g>
    </g>
   </g>
  </g>
 </g>
 <defs/>
</svg>
